{
 "asset": {
  "generator": "LuxEngine gen_capsule.py",
  "version": "2.0"
 },
 "scene": 0,
 "scenes": [
  {
   "name": "Scene",
   "nodes": [
    0
   ]
  }
 ],
 "nodes": [
  {
   "mesh": 0,
   "name": "Capsule"
  }
 ],
 "meshes": [
  {
   "name": "Mesh",
   "primitives": [
    {
     "attributes": {
      "POSITION": 0,
      "NORMAL": 1,
      "TEXCOORD_0": 2
     },
     "indices": 3
    }
   ]
  }
 ],
 "accessors": [
  {
   "bufferView": 0,
   "componentType": 5126,
   "count": 693,
   "max": [
    0.5,
    1.0,
    0.5
   ],
   "min": [
    -0.5,
    -1.0,
    -0.5
   ],
   "type": "VEC3"
  },
  {
   "bufferView": 1,
   "componentType": 5126,
   "count": 693,
   "type": "VEC3"
  },
  {
   "bufferView": 2,
   "componentType": 5126,
   "count": 693,
   "type": "VEC2"
  },
  {
   "bufferView": 3,
   "componentType": 5123,
   "count": 3840,
   "type": "SCALAR"
  }
 ],
 "bufferViews": [
  {
   "buffer": 0,
   "byteLength": 8316,
   "byteOffset": 0
  },
  {
   "buffer": 0,
   "byteLength": 8316,
   "byteOffset": 8316
  },
  {
   "buffer": 0,
   "byteLength": 5544,
   "byteOffset": 16632
  },
  {
   "buffer": 0,
   "byteLength": 7680,
   "byteOffset": 22176
  }
 ],
 "buffers": [
  {
   "byteLength": 29856,
   "uri": "Capsule.bin"
  }
 ]
}